# xmcd CD database file
#
# Track frame offsets:
#	150
#	52553
#	75405
#	106279
#	155080
#	177687
#	220673
#	274742
#
# Disc length: 4268 seconds
#
# Revision: 0
# Processed by: cddbd v1.5.2PL0 Copyright (c) Steve Scherf et al.
# Submitted via: CDex 1.70beta2
#
DISCID=6210aa08
DTITLE=Bugge Wesseltoft - New Conceptions of Jazz - box cd2
DYEAR=2008
DGENRE=Jazz
TTITLE0=Change - Live in Japan
TTITLE1=Existence
TTITLE2=Poem
TTITLE3=Sharing
TTITLE4=Spectre Supreme
TTITLE5=Live in Cologne
TTITLE6=Moving
TTITLE7=Lone
EXTD=YEAR: 2008
EXTT0=
EXTT1=
EXTT2=
EXTT3=
EXTT4=
EXTT5=
EXTT6=
EXTT7=
PLAYORDER=
